<svg xmlns="http://www.w3.org/2000/svg" width="1800" height="1120" viewBox="0 0 1800 1120">
<defs><style>text{font-family:Arial,'PingFang SC','Microsoft YaHei',sans-serif;fill:#243447}.title{font-size:34px;font-weight:700}.h{font-size:22px;font-weight:700}.t{font-size:18px}.s{font-size:15px;fill:#5d6b78}.box{stroke:#8ea0ae;stroke-width:2;rx:14}.arrow{stroke:#607586;stroke-width:3;fill:none;marker-end:url(#m)}</style><marker id="m" markerWidth="10" markerHeight="10" refX="8" refY="3" orient="auto"><path d="M0,0 L9,3 L0,6Z" fill="#607586"/></marker></defs>
<rect width="1800" height="1120" fill="#f7f9fb"/><text x="70" y="62" class="title">AI 私教产品架构图</text><text x="70" y="94" class="s">确定性业务系统托底，Agent 负责理解、协调与个性化表达</text>
<rect x="55" y="130" width="1690" height="145" fill="#e8f2fb" class="box"/><text x="85" y="165" class="h">用户触点层</text>
<g class="t"><rect x="85" y="190" width="235" height="55" fill="#fff" class="box"/><text x="145" y="225">会员 APP</text><rect x="350" y="190" width="235" height="55" fill="#fff" class="box"/><text x="394" y="225">AI 体测仪</text><rect x="615" y="190" width="235" height="55" fill="#fff" class="box"/><text x="658" y="225">主动消息</text><rect x="880" y="190" width="235" height="55" fill="#fff" class="box"/><text x="923" y="225">商家端</text><rect x="1145" y="190" width="235" height="55" fill="#fff" class="box"/><text x="1190" y="225">运营后台</text></g>
<rect x="55" y="315" width="1690" height="175" fill="#edf7f0" class="box"/><text x="85" y="350" class="h">Agent 交互与编排层</text><g class="t"><rect x="85" y="380" width="250" height="70" fill="#fff" class="box"/><text x="135" y="410">对话网关</text><text x="120" y="435" class="s">会话、流式输出、鉴权</text><rect x="370" y="380" width="250" height="70" fill="#fff" class="box"/><text x="405" y="410">意图识别</text><text x="402" y="435" class="s">开始/查询/调整/反馈</text><rect x="655" y="380" width="250" height="70" fill="#fff" class="box"/><text x="720" y="410">上下文组装</text><text x="700" y="435" class="s">按意图读取必要记忆</text><rect x="940" y="380" width="250" height="70" fill="#fff" class="box"/><text x="1010" y="410">工作流与工具</text><text x="992" y="435" class="s">查询、记录、调整、推送</text><rect x="1225" y="380" width="250" height="70" fill="#fff" class="box"/><text x="1290" y="410">规则与安全</text><text x="1273" y="435" class="s">禁忌、权限、降级</text><path d="M335 415H370M620 415H655M905 415H940M1190 415H1225" class="arrow"/></g>
<rect x="55" y="530" width="1690" height="215" fill="#fff7e7" class="box"/><text x="85" y="565" class="h">业务数据与记忆层</text><g class="t"><rect x="85" y="600" width="240" height="95" fill="#fff" class="box"/><text x="137" y="633">用户与订阅</text><text x="112" y="662" class="s">身份/权益/租户/授权</text><rect x="350" y="600" width="240" height="95" fill="#fff" class="box"/><text x="402" y="633">体测数据</text><text x="383" y="662" class="s">原始值/趋势/质量</text><rect x="615" y="600" width="240" height="95" fill="#fff" class="box"/><text x="667" y="633">计划与训练</text><text x="650" y="662" class="s">版本/日志/RPE</text><rect x="880" y="600" width="240" height="95" fill="#fff" class="box"/><text x="932" y="633">饮食与门店</text><text x="912" y="662" class="s">营养/器械/动作库</text><rect x="1145" y="600" width="240" height="95" fill="#fff" class="box"/><text x="1180" y="633">记忆系统</text><text x="1167" y="662" class="s">工作/画像/场景/安全</text><rect x="1410" y="600" width="240" height="95" fill="#fff" class="box"/><text x="1452" y="633">知识与检索</text><text x="1440" y="662" class="s">RAG/向量/关键词</text></g>
<rect x="55" y="785" width="1690" height="180" fill="#f2eefb" class="box"/><text x="85" y="820" class="h">异步运营与治理层</text><g class="t"><rect x="85" y="850" width="260" height="70" fill="#fff" class="box"/><text x="142" y="880">Memory Writer</text><text x="125" y="905" class="s">抽取/归纳/过期/审计</text><rect x="390" y="850" width="260" height="70" fill="#fff" class="box"/><text x="450" y="880">主动触发器</text><text x="430" y="905" class="s">提醒/召回/复测/频控</text><rect x="695" y="850" width="260" height="70" fill="#fff" class="box"/><text x="755" y="880">评测与观测</text><text x="735" y="905" class="s">质量/成本/延迟/安全</text><rect x="1000" y="850" width="260" height="70" fill="#fff" class="box"/><text x="1062" y="880">内容与规则配置</text><text x="1040" y="905" class="s">Prompt/动作/知识/规则</text></g>
<path d="M780 490V530" class="arrow"/><path d="M780 745V785" class="arrow"/><path d="M950 745V850" class="arrow"/><path d="M520 920V965" class="arrow"/>
</svg>
